<svg width="24" height="31" viewBox="0 0 24 31" fill="none" xmlns="http://www.w3.org/2000/svg">
<path d="M12 14.6875C12.725 14.6875 13.3438 14.4313 13.8563 13.9188C14.3688 13.4062 14.625 12.7875 14.625 12.0625C14.625 11.3375 14.3688 10.7188 13.8563 10.2062C13.3438 9.69375 12.725 9.4375 12 9.4375C11.275 9.4375 10.6562 9.69375 10.1437 10.2062C9.63125 10.7188 9.375 11.3375 9.375 12.0625C9.375 12.7875 9.63125 13.4062 10.1437 13.9188C10.6562 14.4313 11.275 14.6875 12 14.6875ZM12 27.1C15.325 24.075 17.7812 21.3313 19.3688 18.8688C20.9563 16.4062 21.75 14.2375 21.75 12.3625C21.75 9.4125 20.8062 7 18.9187 5.125C17.0312 3.25 14.725 2.3125 12 2.3125C9.275 2.3125 6.96875 3.25 5.08125 5.125C3.19375 7 2.25 9.4125 2.25 12.3625C2.25 14.2375 3.0625 16.4062 4.6875 18.8688C6.3125 21.3313 8.75 24.075 12 27.1ZM12 30.0625C7.975 26.6375 4.96875 23.4562 2.98125 20.5187C0.99375 17.5812 0 14.8625 0 12.3625C0 8.6125 1.20625 5.625 3.61875 3.4C6.03125 1.175 8.825 0.0625 12 0.0625C15.175 0.0625 17.9688 1.175 20.3812 3.4C22.7937 5.625 24 8.6125 24 12.3625C24 14.8625 23.0063 17.5812 21.0188 20.5187C19.0313 23.4562 16.025 26.6375 12 30.0625Z" fill="#CCCCCC"/>
</svg>
