<svg width="24" height="23" viewBox="0 0 24 23" fill="none" xmlns="http://www.w3.org/2000/svg">
<path d="M18.2434 22.9742H5.52745V8.31071L13.4893 0.0625L14.6062 0.950328C14.7208 1.04579 14.8067 1.17945 14.864 1.35128C14.9212 1.52312 14.9499 1.73314 14.9499 1.98135V2.26775L13.6611 8.31071H22.2243C22.6826 8.31071 23.0835 8.48255 23.4272 8.82622C23.7709 9.1699 23.9427 9.57085 23.9427 10.0291V12.3775C23.9427 12.5112 23.957 12.6496 23.9857 12.7928C24.0143 12.936 24 13.0744 23.9427 13.2081L20.3341 21.5136C20.1623 21.9145 19.8807 22.2582 19.4893 22.5446C19.0979 22.831 18.6826 22.9742 18.2434 22.9742ZM7.24582 21.2558H18.6158L22.2243 12.6926V10.0291H11.5418L13.0597 2.89782L7.24582 9.0267V21.2558ZM7.24582 9.0267V21.2558V9.0267ZM5.52745 8.31071V10.0291H1.71838V21.2558H5.52745V22.9742H0V8.31071H5.52745Z" fill="#CCCCCC"/>
</svg>
