<svg width="24" height="20" viewBox="0 0 24 20" fill="none" xmlns="http://www.w3.org/2000/svg">
<path d="M1.8 19.2625C1.32 19.2625 0.9 19.0825 0.54 18.7225C0.18 18.3625 0 17.9425 0 17.4625V1.8625C0 1.3825 0.18 0.9625 0.54 0.6025C0.9 0.2425 1.32 0.0625 1.8 0.0625H22.2C22.68 0.0625 23.1 0.2425 23.46 0.6025C23.82 0.9625 24 1.3825 24 1.8625V17.4625C24 17.9425 23.82 18.3625 23.46 18.7225C23.1 19.0825 22.68 19.2625 22.2 19.2625H1.8ZM12 10.2025L1.8 3.5125V17.4625H22.2V3.5125L12 10.2025ZM12 8.4025L22.08 1.8625H1.95L12 8.4025ZM1.8 3.5125V1.8625V17.4625V3.5125Z" fill="#CCCCCC"/>
</svg>
