<svg width="24" height="25" viewBox="0 0 24 25" fill="none" xmlns="http://www.w3.org/2000/svg">
<path d="M22.5 24.0625C19.7889 24.0625 17.0944 23.3958 14.4167 22.0625C11.7389 20.7292 9.33333 18.9958 7.2 16.8625C5.06667 14.7292 3.33333 12.3236 2 9.64583C0.666667 6.96806 0 4.27361 0 1.5625C0 1.14028 0.144445 0.784722 0.433333 0.495833C0.722222 0.206945 1.07778 0.0625 1.5 0.0625H6.16667C6.47778 0.0625 6.75 0.168055 6.98333 0.379167C7.21667 0.590278 7.36667 0.873611 7.43333 1.22917L8.33333 5.42917C8.37778 5.74028 8.37222 6.02361 8.31667 6.27917C8.26111 6.53472 8.14445 6.75139 7.96667 6.92917L4.63333 10.2958C5.87778 12.3625 7.27222 14.1625 8.81667 15.6958C10.3611 17.2292 12.1111 18.5292 14.0667 19.5958L17.2333 16.3292C17.4556 16.0847 17.7111 15.9125 18 15.8125C18.2889 15.7125 18.5778 15.6958 18.8667 15.7625L22.8333 16.6292C23.1667 16.6958 23.4444 16.8625 23.6667 17.1292C23.8889 17.3958 24 17.7069 24 18.0625V22.5625C24 22.9847 23.8556 23.3403 23.5667 23.6292C23.2778 23.9181 22.9222 24.0625 22.5 24.0625ZM3.63333 8.4625L6.33333 5.72917L5.56667 2.0625H2C2 2.92917 2.13333 3.87917 2.4 4.9125C2.66667 5.94583 3.07778 7.12917 3.63333 8.4625ZM15.9333 20.5625C16.8444 20.9847 17.8333 21.3292 18.9 21.5958C19.9667 21.8625 21 22.0181 22 22.0625V18.4958L18.5667 17.7958L15.9333 20.5625Z" fill="#CCCCCC"/>
</svg>
