<svg xmlns="http://www.w3.org/2000/svg" width="89" height="89" viewBox="0 0 89 89">
  <g id="LOGO_SUP_blanc" data-name="LOGO SUP blanc" transform="translate(-25.711 -25.541)">
    <path id="Rectangle_1_-_Contour" data-name="Rectangle 1 - Contour" d="M-1.5-1.5h89v89h-89ZM86.349-.349H-.349v86.7h86.7Z" transform="translate(27.211 27.041)" fill="#fff"/>
    <path id="Tracé_1" data-name="Tracé 1" d="M80.964,73.3c-.062-.371-.146-.739-.182-1.113A22.771,22.771,0,0,1,82.953,59.7c3.528-7.138,9.194-11.673,17.029-13.159a22.8,22.8,0,0,1,20.651,6.079,22.547,22.547,0,0,1,7.2,13.917,23.783,23.783,0,0,1-18.908,26.544c-.019,0-.037.011-.13.038l6.1,3.338-.014.044H92.418l-.023-.044L98.932,92.9a24.376,24.376,0,0,1-4.672-1.657,21.019,21.019,0,0,1-4.126-2.566c.061.035.126.064.183.1A21.918,21.918,0,0,0,99.3,92.464a.919.919,0,0,0,.549-.088c1.2-.644,2.38-1.312,3.574-1.959a.486.486,0,0,1,.392-.028c1.138.609,2.266,1.235,3.4,1.857a1.91,1.91,0,0,1,.159.122c-.734.108-1.392.223-2.054.3a22.833,22.833,0,0,1-5.531-.092,1.408,1.408,0,0,0-.732.28,21.969,21.969,0,0,0,9.581.2l-1.271-.712c.424-.11.8-.2,1.181-.307a19.752,19.752,0,0,0,12.52-10.291,24.671,24.671,0,0,0-1.212-24.134,19.315,19.315,0,0,0-13.534-8.9A21.3,21.3,0,0,0,89.5,53.036a21.734,21.734,0,0,0-8.233,13.038,20.965,20.965,0,0,0-.4,6.272c.027.319.06.638.091.957Z" transform="translate(-33.874 -12.659)" fill="#fff"/>
    <path id="Tracé_2" data-name="Tracé 2" d="M70.06,103.826c.03.268.163.075.229.038.71-.393,1.4-.813,2.122-1.191a58.134,58.134,0,0,1,11.427-4.442,64.846,64.846,0,0,1,10.921-2.148c2.333-.24,4.68-.335,7.022-.494a.636.636,0,0,1,.234.03c-.953.144-1.908.283-2.86.434A91.688,91.688,0,0,0,85.1,99.385a59.93,59.93,0,0,0-8.634,3.489,24.674,24.674,0,0,0-5.948,3.939,11.605,11.605,0,0,0-1.67,1.956,3.912,3.912,0,0,0,.162,4.926,6.613,6.613,0,0,0,3.766,2.387,16.5,16.5,0,0,0,5.387.44,46.513,46.513,0,0,0,10.988-2.19l.105-.036c-.028-.329-.077-.646-.078-.964a3.209,3.209,0,1,1,6.416.107,3.229,3.229,0,0,1-2.245,2.991,3.182,3.182,0,0,1-3.566-1.19.33.33,0,0,0-.474-.136,55.834,55.834,0,0,1-11.21,2.933,32.612,32.612,0,0,1-6.661.394,13.083,13.083,0,0,1-5.3-1.233,6.056,6.056,0,0,1-2.311-1.989,4.7,4.7,0,0,1-.186-5.134,11.5,11.5,0,0,1,3.091-3.648c.994-.8,2.064-1.514,3.094-2.275a1.319,1.319,0,0,0,.233-.325Zm24.857,8.466-5.586,2.059.286.627A23.319,23.319,0,0,0,94.917,112.292Z" transform="translate(-22.967 -43.181)" fill="#fff"/>
    <path id="Tracé_3" data-name="Tracé 3" d="M160.055,209.013h-3.34c.056-.117.075-.231.141-.278.252-.178.3-.309.093-.544-.262-.3-.546-.585-.826-.871q-2.408-2.456-4.819-4.909c-.056-.056-.117-.108-.214-.2v.288q0,2.79,0,5.58c0,.3,0,.573.38.661.051.012.07.157.115.268H148.7c-.053-.17-.016-.277.166-.321a.358.358,0,0,0,.277-.371c0-.075.005-.15.005-.225q0-4.116,0-8.233c0-.3-.017-.569-.383-.661-.052-.013-.074-.149-.124-.262h3.616c.049.138.041.232-.124.306a.262.262,0,0,0-.105.435,3.357,3.357,0,0,0,.344.395q2.555,2.61,5.114,5.216c.041.041.084.08.155.146a1.389,1.389,0,0,0,.031-.2q0-2.74,0-5.48a.487.487,0,0,0-.363-.549c-.065-.019-.1-.145-.174-.268h2.9c.072.146.037.226-.132.313a.73.73,0,0,0-.273.343.863.863,0,0,0-.027.346q0,4.042,0,8.083a.885.885,0,0,0,.029.346.641.641,0,0,0,.258.323C160.053,208.762,160.1,208.835,160.055,209.013Z" transform="translate(-75.781 -106.891)" fill="#fff"/>
    <path id="Tracé_4" data-name="Tracé 4" d="M46.561,205.573l.306.13c-.111.309.072.492.314.617a6.579,6.579,0,0,0,4.81.651,2.5,2.5,0,0,0,.9-.468.762.762,0,0,0-.18-1.378,4.611,4.611,0,0,0-1.628-.349c-.945-.082-1.893-.142-2.834-.26a3.581,3.581,0,0,1-1.63-.658,2.7,2.7,0,0,1-.362-3.725,3.956,3.956,0,0,1,2.051-1.313,7.769,7.769,0,0,1,4.79.223c.479.165.945.37,1.416.56a.5.5,0,0,0,.518-.027c.076-.052.21-.018.379-.025l-1.252,2.44c-.179-.079-.325-.117-.36-.359a.758.758,0,0,0-.326-.415,5.352,5.352,0,0,0-2.412-.894,4.613,4.613,0,0,0-2.031.114,2.605,2.605,0,0,0-.909.492.646.646,0,0,0,.191,1.161,6.589,6.589,0,0,0,1.452.329c.924.125,1.858.178,2.779.318a4.192,4.192,0,0,1,2.005.848,2.585,2.585,0,0,1,.349,3.735,4.723,4.723,0,0,1-2.941,1.509,9.177,9.177,0,0,1-5.458-.779c-.076-.035-.154-.065-.229-.1-.195-.093-.371-.115-.478.136l-.308-.1Z" transform="translate(-12.189 -106.644)" fill="#fff"/>
    <path id="Tracé_5" data-name="Tracé 5" d="M213.634,208.888a6,6,0,0,1-4.674-1.854,5.063,5.063,0,0,1,1.392-7.844,6.645,6.645,0,0,1,3.95-.693,5.831,5.831,0,0,1,3.513,1.569,5.079,5.079,0,0,1-1.068,8.007A6.127,6.127,0,0,1,213.634,208.888ZM213.49,207a3.363,3.363,0,0,0,3.667-3.167,3.315,3.315,0,0,0-1.835-3.257,4.611,4.611,0,0,0-2.322-.357,3.258,3.258,0,0,0-3.159,3.119,3.18,3.18,0,0,0,1.413,3.067A3.859,3.859,0,0,0,213.49,207Z" transform="translate(-112.17 -106.591)" fill="#fff"/>
    <path id="Tracé_6" data-name="Tracé 6" d="M122.817,95.491c-.844.249-1.64.5-2.444.719-4.256,1.177-8.519,2.332-12.77,3.527-4.129,1.161-8.225,2.432-12.224,3.994a40.5,40.5,0,0,0-7.443,3.631,11.293,11.293,0,0,0-2.984,2.62A3.786,3.786,0,0,0,85,115.015a3.753,3.753,0,0,1,.43.61,14.136,14.136,0,0,1-1.254-1.022,11.785,11.785,0,0,1-1.492-1.72,3.522,3.522,0,0,1,.037-4.13,9.52,9.52,0,0,1,2.8-2.643,32.916,32.916,0,0,1,6.553-3.252,101.019,101.019,0,0,1,12.3-3.758c5.428-1.348,10.912-2.429,16.429-3.342.646-.107,1.295-.2,1.942-.3C122.743,95.459,122.753,95.466,122.817,95.491Z" transform="translate(-34.718 -43.102)" fill="#fff"/>
    <path id="Tracé_7" data-name="Tracé 7" d="M74.113,198.929h3.182c.056.16.035.259-.142.306-.253.066-.282.276-.282.5,0,1.826,0,3.653,0,5.48a3.77,3.77,0,0,0,.075.644,1.746,1.746,0,0,0,1.391,1.494,5.451,5.451,0,0,0,2.528.041,1.994,1.994,0,0,0,1.7-2.128c.027-.808.012-1.618.013-2.427,0-1.034,0-2.068,0-3.1,0-.26-.064-.452-.346-.533-.065-.019-.1-.146-.173-.267h3.205c.032.114.092.232-.1.283-.272.072-.349.264-.348.53.006,1.777.013,3.554,0,5.33a7.7,7.7,0,0,1-.151,1.462,2.823,2.823,0,0,1-2.131,2.283,10.255,10.255,0,0,1-5.363.065,3.089,3.089,0,0,1-2.5-3.12c-.044-.924-.027-1.851-.03-2.776,0-1.068,0-2.136,0-3.2,0-.277-.037-.515-.367-.594C74.212,199.18,74.182,199.052,74.113,198.929Z" transform="translate(-29.838 -106.885)" fill="#fff"/>
    <path id="Tracé_8" data-name="Tracé 8" d="M109.816,204.867v1.361c0,.659,0,1.318,0,1.977a.449.449,0,0,0,.327.494c.079.028.123.156.218.287h-3.215c-.053-.17-.025-.274.163-.316a.341.341,0,0,0,.272-.347c.006-.117.018-.233.018-.349q0-4.029,0-8.058c0-.108-.012-.216-.015-.324a.36.36,0,0,0-.278-.37c-.166-.043-.216-.132-.155-.328h.248c1.96,0,3.92-.007,5.881,0a5.963,5.963,0,0,1,2.56.473,2.531,2.531,0,0,1,1.6,2.307,2.7,2.7,0,0,1-1.472,2.663,4.735,4.735,0,0,1-2.316.526c-1.168.007-2.335,0-3.5,0Zm.019-4.253v2.51c1.184,0,2.349.013,3.514-.006a2.96,2.96,0,0,0,1.4-.322,1.025,1.025,0,0,0,.557-1.035.927.927,0,0,0-.654-.886,3.56,3.56,0,0,0-1.016-.225c-1.231-.04-2.464-.039-3.7-.053A.635.635,0,0,0,109.835,200.614Z" transform="translate(-50.185 -106.862)" fill="#fff"/>
    <path id="Tracé_9" data-name="Tracé 9" d="M189.778,204.232c-.068-.066-.168-.12-.2-.2a.4.4,0,0,0-.37-.285c-.091-.007-.183-.02-.274-.02q-1.827,0-3.654,0c-.073,0-.146.008-.253.014v.306q0,1.564,0,3.129c0,.313-.023.634.4.719.045.009.063.159.1.267h-3.167c-.057-.164-.03-.269.155-.318.249-.066.291-.262.291-.49,0-1.184,0-2.369,0-3.554,0-1.61,0-3.22,0-4.83,0-.29-.031-.53-.37-.618-.058-.015-.082-.154-.145-.281h.367q4.33,0,8.66,0c.282,0,.486-.055.569-.362.016-.061.148-.091.265-.156v2.772c-.15.058-.249.043-.3-.134a.372.372,0,0,0-.388-.291c-.075,0-.15-.013-.224-.013h-5.957c-.074,0-.148.007-.242.012v2.176c.076,0,.156.014.235.014,1.243,0,2.486,0,3.729,0,.283,0,.509-.05.593-.37.015-.056.139-.083.247-.142v2.582Z" transform="translate(-96.528 -106.038)" fill="#fff"/>
    <path id="Tracé_10" data-name="Tracé 10" d="M136.489,198.92h3.169c.048.146.055.253-.131.3a.388.388,0,0,0-.293.435q0,4.3,0,8.61a.429.429,0,0,0,.288.445c.086.036.139.147.207.224l-.055.065h-3.122c-.033-.14-.054-.258.14-.3a.381.381,0,0,0,.3-.41c0-.058,0-.117,0-.175q0-4.154,0-8.309c0-.286-.027-.533-.371-.617C136.569,199.174,136.546,199.04,136.489,198.92Z" transform="translate(-68.289 -106.88)" fill="#fff"/>
    <path id="Ligne_1" data-name="Ligne 1" d="M73.834-.349H0V-1.5H73.834Z" transform="translate(33.302 88.337)" fill="#fff"/>
    <path id="Ligne_2" data-name="Ligne 2" d="M74.743-.349H0V-1.5H74.743Z" transform="translate(32.903 107.521)" fill="#fff"/>
  </g>
</svg>
