<svg xmlns="http://www.w3.org/2000/svg" viewBox="0 0 1440 320">
    <path fill="#DCDAFB" fill-opacity="1" d="M 0 32 L 20 48 C 40 64 80 96 120 128 C 160 160 200 192 240 192 C 280 192 320 160 360 154.7 C 400 149 440 171 480 176 C 520 181 560 171 600 181.3 C 640 192 680 224 720 197.3 C 1000 128 1040 192 1080 197.3 C 1120 203 1160 149 1200 122.7 C 1240 96 1280 96 1320 117.3 C 1375 41 1384 86 1437 33 L 1440 320 L 1420 320 C 1400 320 1360 320 1320 320 C 1280 320 1240 320 1200 320 C 1160 320 1120 320 1080 320 C 1040 320 1000 320 960 320 C 920 320 880 320 840 320 C 800 320 760 320 720 320 C 680 320 640 320 600 320 C 560 320 520 320 480 320 C 440 320 400 320 360 320 C 320 320 280 320 240 320 C 200 320 160 320 120 320 C 80 320 40 320 20 320 L 0 320 Z"></path>
</svg>